<?xml version="1.0" standalone="no"?>
<!DOCTYPE svg PUBLIC "-//W3C//DTD SVG 20010904//EN"
 "http://www.w3.org/TR/2001/REC-SVG-20010904/DTD/svg10.dtd">
<svg version="1.0" xmlns="http://www.w3.org/2000/svg"
 width="700.000000pt" height="700.000000pt" viewBox="0 0 700.000000 700.000000"
 preserveAspectRatio="xMidYMid meet">
<metadata>
Created by potrace 1.14, written by Peter Selinger 2001-2017
</metadata>
<g transform="translate(0.000000,700.000000) scale(0.100000,-0.100000)"
fill="#000000" stroke="none">
<path d="M3460 6475 c-305 -38 -428 -64 -675 -141 -44 -14 -89 -29 -100 -34
-11 -5 -51 -21 -90 -36 -206 -78 -466 -229 -650 -377 -423 -341 -766 -903
-928 -1522 -78 -300 -115 -512 -148 -840 -14 -148 -15 -756 0 -870 56 -438
145 -735 295 -975 198 -319 469 -551 816 -699 41 -18 84 -36 95 -42 42 -19
234 -78 325 -98 52 -12 111 -26 130 -31 19 -5 109 -20 200 -32 150 -21 203
-23 585 -23 381 0 436 2 590 23 94 12 188 27 210 32 22 5 69 14 105 21 150 27
342 87 393 121 35 25 45 45 58 113 11 61 -3 198 -22 222 -15 18 -96 17 -150
-3 -60 -21 -213 -61 -285 -73 -32 -6 -79 -16 -104 -21 -25 -6 -74 -15 -110
-19 -36 -5 -117 -17 -180 -27 -143 -22 -697 -26 -850 -6 -388 51 -599 110
-848 238 -149 77 -253 153 -372 273 -137 137 -231 278 -315 473 -40 94 -97
310 -116 441 -24 167 -28 211 -35 387 -7 188 8 596 26 700 5 30 16 105 25 165
18 132 41 260 60 335 7 30 19 78 26 105 64 267 199 589 345 821 214 342 510
615 843 779 135 66 262 119 313 130 18 4 38 11 43 15 36 27 366 94 545 110
149 13 546 13 686 0 180 -17 386 -62 509 -110 156 -61 181 -73 317 -152 265
-153 485 -435 598 -765 49 -143 65 -187 72 -198 14 -22 58 -327 68 -465 13
-186 13 -495 0 -680 -12 -161 -52 -429 -76 -499 -50 -147 -157 -292 -256 -346
-48 -27 -61 -30 -148 -30 -85 0 -99 3 -136 27 -99 64 -104 160 -29 543 9 44
36 186 61 315 25 129 61 313 80 409 28 148 32 178 21 200 -17 36 -60 54 -139
59 -54 3 -76 0 -112 -17 -49 -24 -61 -46 -72 -131 -3 -30 -8 -58 -10 -61 -2
-4 -34 23 -71 60 -121 118 -254 171 -429 171 -354 -1 -627 -228 -773 -643 -49
-140 -76 -270 -101 -477 -16 -138 -83 -273 -179 -363 -82 -76 -121 -92 -231
-92 -85 0 -99 3 -136 27 -102 66 -106 156 -24 568 17 87 32 165 121 630 16 85
34 175 39 200 17 85 -34 128 -154 129 -74 1 -139 -27 -154 -67 -6 -15 -13 -53
-17 -84 -4 -32 -10 -58 -13 -58 -4 0 -37 28 -73 63 -119 114 -253 167 -422
167 -454 0 -772 -370 -862 -1005 -17 -119 -19 -368 -4 -451 35 -193 121 -325
254 -392 84 -41 155 -56 285 -56 106 -1 136 3 195 23 174 59 338 166 413 269
l20 26 27 -57 c57 -115 155 -199 285 -243 84 -29 289 -26 390 5 98 30 173 69
255 131 36 27 68 50 71 50 2 0 30 -26 62 -59 103 -105 212 -144 402 -145 106
-1 136 3 195 23 171 58 340 167 412 266 l21 30 25 -55 c33 -71 114 -161 180
-198 97 -55 149 -67 292 -66 147 0 229 19 345 80 283 147 473 497 540 989 16
120 27 420 19 505 -4 41 -8 152 -8 246 -2 578 -105 989 -330 1322 -287 425
-744 683 -1386 783 -121 19 -189 22 -500 25 -253 2 -391 -1 -465 -11z m-1000
-2382 c58 -26 149 -109 207 -190 52 -73 52 -76 15 -273 -11 -58 -27 -143 -36
-190 -47 -248 -41 -234 -128 -315 -147 -137 -208 -183 -305 -227 -59 -28 -79
-32 -153 -32 -131 0 -185 38 -222 157 -18 62 -20 85 -15 230 6 188 29 307 86
463 76 207 185 339 321 388 59 21 169 16 230 -11z m2120 0 c97 -43 250 -217
250 -284 0 -18 -9 -78 -20 -134 -11 -55 -31 -161 -45 -235 -48 -260 -36 -229
-133 -321 -113 -107 -221 -187 -302 -224 -56 -25 -77 -29 -150 -29 -93 0 -125
11 -172 61 -85 91 -93 375 -19 663 71 272 199 455 361 514 58 21 169 16 230
-11z"/>
</g>
</svg>
